<svg width="114" height="114" viewBox="0 0 114 114" fill="none" xmlns="http://www.w3.org/2000/svg">
<path fill-rule="evenodd" clip-rule="evenodd" d="M57.0005 104.5C30.7805 104.5 9.50049 83.172 9.50049 56.9995C9.50049 30.7795 30.7805 9.49951 57.0005 9.49951C83.173 9.49951 104.5 30.7795 104.5 56.9995C104.5 83.172 83.173 104.5 57.0005 104.5ZM76.0005 47.5945C74.5755 46.217 72.343 46.217 70.9655 47.642L57.0005 61.6545L43.0355 47.642C41.658 46.217 39.378 46.217 38.0005 47.5945C36.5755 49.0195 36.5755 51.252 38.0005 52.6295L54.483 69.207C55.148 69.872 56.0505 70.252 57.0005 70.252C57.9505 70.252 58.853 69.872 59.518 69.207L76.0005 52.6295C76.713 51.9645 77.0455 51.062 77.0455 50.1595C77.0455 49.2095 76.713 48.307 76.0005 47.5945Z" fill="#2A2A2A"/>
</svg>
